:FULLY-SPECIFIED
:FORCE-ALL-JOINTS-BE-3DOF
:DEGREES
1733
root -5.14294 15.6924 27.3529 907.012 -4.20154 189.065
lfemur -48.7549 16.7848 -19.2813
ltibia 58.8881 0 0
lfoot -17.4503 17.8022 0
ltoes -36.9462 0 0
rfemur -25.41 -14.8803 16.9398
rtibia 64.3279 0 0
rfoot -10.9888 -22.8715 0
rtoes 10.9394 0 0
lowerback 16.9555 2.7395 -5.86282
upperback -0.137989 2.54759 1.93819
thorax -10.0669 1.5177 4.81795
lowerneck 5.56279 -14.9754 -17.0903
upperneck -3.37451 -21.9191 25.0627
head 2.93524 -11.5483 9.41925
lclavicle -3.37934e-15 -1.27222e-14 0
lhumerus -54.2637 -39.9683 118.396
lradius 95.3904 0 0
lwrist 46.5619 0 0
lhand -2.56992 37.134 0
lfingers 7.12502 0 0
lthumb 23.1267 65.7659 0
rclavicle -3.37934e-15 -1.27222e-14 0
rhumerus 37.7857 45.0573 -31.4568
rradius 130.56 0 0
rwrist -16.0679 0 0
rhand 9.87693 -26.3431 0
rfingers 7.12502 0 0
rthumb 35.0096 -52.8969 0
1734
root -5.07133 15.6953 27.4047 906.857 -1.86935 188.913
lfemur -47.974 16.2281 -18.7027
ltibia 58.5503 0 0
lfoot -17.4104 17.7973 0
ltoes -37.1745 0 0
rfemur -25.9287 -15.4227 17.3316
rtibia 63.274 0 0
rfoot -11.4092 -22.5472 0
rtoes 10.7721 0 0
lowerback 17.2609 2.96851 -6.27006
upperback -0.0550889 2.71517 1.68398
thorax -10.1785 1.60551 4.72027
lowerneck 5.7937 -14.8495 -17.1428
upperneck -3.50305 -21.7959 25.2421
head 2.86336 -11.5213 9.52942
lclavicle -9.54166e-15 -2.38542e-15 0
lhumerus -55.4068 -38.0051 117.818
lradius 95.9644 0 0
lwrist 46.735 0 0
lhand -2.56886 36.4315 0
lfingers 7.12502 0 0
lthumb 23.1277 65.0633 0
rclavicle -9.54166e-15 -2.38542e-15 0
rhumerus 32.9647 45.8565 -34.4425
rradius 130.916 0 0
rwrist -16.2357 0 0
rhand 10.1605 -25.6001 0
rfingers 7.12502 0 0
rthumb 35.2786 -52.0906 0
1735
root -5.0026 15.6931 27.4508 906.605 0.452724 188.693
lfemur -47.0905 15.598 -18.048
ltibia 58.2194 0 0
lfoot -17.2943 17.7831 0
ltoes -37.2536 0 0
rfemur -26.4537 -15.9716 17.7281
rtibia 62.2104 0 0
rfoot -11.8322 -22.2209 0
rtoes 10.6147 0 0
lowerback 17.5868 3.01528 -6.77701
upperback 0.0840382 2.90707 1.43637
thorax -10.2347 1.8312 4.65699
lowerneck 5.19921 -14.9772 -17.142
upperneck -2.80662 -22.0071 24.9708
head 3.16955 -11.561 9.33131
lclavicle 0 2.70347e-14 0
lhumerus -56.2601 -35.9652 116.968
lradius 96.7141 0 0
lwrist 47.0774 0 0
lhand -3.34579 35.6058 0
lfingers 7.12502 0 0
lthumb 22.3821 64.3292 0
rclavicle 0 2.70347e-14 0
rhumerus 27.6613 46.461 -37.6197
rradius 131.116 0 0
rwrist -16.5962 0 0
rhand 11.0631 -24.9555 0
rfingers 7.12502 0 0
rthumb 36.134 -51.239 0
1736
root -4.93618 15.6849 27.4933 906.356 2.88088 188.491
lfemur -46.1162 14.9033 -17.3261
ltibia 57.8991 0 0
lfoot -17.1077 17.7602 0
ltoes -37.1671 0 0
rfemur -26.9787 -16.5206 18.1246
rtibia 61.1565 0 0
rfoot -12.2526 -21.8966 0
rtoes 10.469 0 0
lowerback 17.8359 3.25463 -7.21675
upperback 0.239642 3.10647 1.18556
thorax -10.2382 1.94052 4.56917
lowerneck 5.0822 -14.9186 -17.2223
upperneck -2.77047 -21.9667 25.1424
head 3.22302 -11.5482 9.38972
lclavicle -5.1684e-15 -7.95139e-15 0
lhumerus -57.0416 -33.7796 116.02
lradius 97.5709 0 0
lwrist 47.1465 0 0
lhand -4.13731 34.9056 0
lfingers 7.12502 0 0
lthumb 21.6221 63.7184 0
rclavicle -5.1684e-15 -7.95139e-15 0
rhumerus 21.8527 46.6831 -41.0646
rradius 131.07 0 0
rwrist -17.0968 0 0
rhand 11.7892 -24.8544 0
rfingers 7.12502 0 0
rthumb 36.8213 -50.9649 0
1737
root -4.87878 15.677 27.5277 906.081 5.38179 188.288
lfemur -45.0634 14.1525 -16.5459
ltibia 57.5927 0 0
lfoot -16.8563 17.7294 0
ltoes -36.9181 0 0
rfemur -27.4974 -17.063 18.5164
rtibia 60.1315 0 0
rfoot -12.6649 -21.5785 0
rtoes 10.3369 0 0
lowerback 18.0927 3.47601 -7.55515
upperback 0.395348 3.30143 0.920164
thorax -10.2384 2.04256 4.4065
lowerneck 4.78649 -14.839 -17.266
upperneck -2.7243 -21.8635 25.2447
head 3.28246 -11.492 9.41406
lclavicle -3.10104e-14 -4.77083e-15 0
lhumerus -57.669 -31.4905 114.825
lradius 98.5683 0 0
lwrist 46.737 0 0
lhand -4.74174 33.8935 0
lfingers 7.12502 0 0
lthumb 21.0415 62.7719 0
rclavicle -3.10104e-14 -4.77083e-15 0
rhumerus 15.7524 46.639 -44.488
rradius 130.925 0 0
rwrist -17.8274 0 0
rhand 13.2343 -24.549 0
rfingers 7.12502 0 0
rthumb 38.1871 -50.2971 0
1738
root -4.82456 15.677 27.5518 905.92 8.1417 188.185
lfemur -43.944 13.3544 -15.7165
ltibia 57.3037 0 0
lfoot -16.5457 17.6913 0
ltoes -36.5219 0 0
rfemur -28.0037 -17.5924 18.8989
rtibia 59.1548 0 0
rfoot -13.0636 -21.271 0
rtoes 10.2202 0 0
lowerback 18.1473 3.7815 -7.82434
upperback 0.41161 3.62441 0.693202
thorax -10.2983 2.2033 4.21388
lowerneck 4.83236 -15.3702 -17.6264
upperneck -2.40623 -21.5909 25.391
head 3.39777 -10.8633 9.54642
lclavicle -3.33958e-14 1.27222e-14 0
lhumerus -58.6638 -29.1206 113.756
lradius 99.7357 0 0
lwrist 45.9523 0 0
lhand -5.13376 34.8898 0
lfingers 7.12502 0 0
lthumb 20.6649 63.8097 0
rclavicle -3.33958e-14 1.27222e-14 0
rhumerus 9.14248 46.2664 -48.017
rradius 130.415 0 0
rwrist -18.5313 0 0
rhand 14.8218 -24.2534 0
rfingers 7.12502 0 0
rthumb 39.6839 -49.5741 0
1739
root -4.77087 15.6656 27.5742 905.822 11.0507 188.06
lfemur -42.7703 12.5174 -14.8468
ltibia 57.0357 0 0
lfoot -16.1815 17.6467 0
ltoes -35.994 0 0
rfemur -28.4913 -18.1022 19.2672
rtibia 58.2457 0 0
rfoot -13.4433 -20.978 0
rtoes 10.1206 0 0
lowerback 18.1753 4.11266 -8.0569
upperback 0.404331 3.98639 0.436181
thorax -10.3702 2.38008 3.95492
lowerneck 4.56405 -15.2804 -17.7385
upperneck -2.26564 -21.4678 25.4714
head 3.48055 -10.7797 9.57948
lclavicle -4.17448e-14 -1.43125e-14 0
lhumerus -59.708 -27.016 112.679
lradius 100.908 0 0
lwrist 44.9186 0 0
lhand -5.685 35.0895 0
lfingers 7.12502 0 0
lthumb 20.1351 64.0661 0
rclavicle -4.17448e-14 -1.43125e-14 0
rhumerus 2.58294 45.3171 -51.3284
rradius 129.277 0 0
rwrist -19.096 0 0
rhand 16.0825 -24.6094 0
rfingers 7.12502 0 0
rthumb 40.8696 -49.5671 0
1740
root -4.71736 15.6488 27.5902 905.622 14.2735 188.027
lfemur -41.5542 11.6503 -13.9457
ltibia 56.7921 0 0
lfoot -15.7694 17.5961 0
ltoes -35.35 0 0
rfemur -28.954 -18.586 19.6167
rtibia 57.4234 0 0
rfoot -13.7987 -20.7039 0
rtoes 10.04 0 0
lowerback 18.0127 4.49024 -8.15453
upperback 0.580963 4.47492 0.170634
thorax -10.1318 2.60149 3.59029
lowerneck 4.45802 -15.5114 -17.3432
upperneck -2.53166 -21.7114 24.9731
head 3.36005 -10.9082 9.32313
lclavicle 3.18055e-15 -6.36111e-15 0
lhumerus -60.6616 -25.2512 111.587
lradius 101.635 0 0
lwrist 43.7176 0 0
lhand -6.15019 30.2677 0
lfingers 7.12502 0 0
lthumb 19.688 59.2907 0
rclavicle 3.18055e-15 -6.36111e-15 0
rhumerus -3.3633 43.8355 -54.0559
rradius 127.513 0 0
rwrist -19.1721 0 0
rhand 16.5283 -25.4624 0
rfingers 7.12502 0 0
rthumb 41.2882 -50.2865 0
1741
root -4.66368 15.631 27.6056 905.673 17.408 187.912
lfemur -40.3079 10.7616 -13.0222
ltibia 56.5764 0 0
lfoot -15.315 17.5404 0
ltoes -34.6054 0 0
rfemur -29.3856 -19.0373 19.9427
rtibia 56.7074 0 0
rfoot -14.1242 -20.4527 0
rtoes 9.98024 0 0
lowerback 18.0819 4.83921 -8.26375
upperback 0.326099 4.8554 -0.0877993
thorax -10.4948 2.78741 3.24101
lowerneck 4.32325 -15.3651 -17.5387
upperneck -2.25635 -21.5489 24.7357
head 3.41685 -10.8176 9.28242
lclavicle -3.4191e-14 7.31528e-14 0
lhumerus -62.15 -23.3662 110.692
lradius 102.49 0 0
lwrist 42.8446 0 0
lhand -6.38551 28.0723 0
lfingers 7.12502 0 0
lthumb 19.4617 57.1183 0
rclavicle -3.4191e-14 7.31528e-14 0
rhumerus -9.37516 42.1485 -56.5458
rradius 124.983 0 0
rwrist -18.6219 0 0
rhand 17.07 -27.2261 0
rfingers 7.12502 0 0
rthumb 41.7964 -51.884 0
1742
root -4.61093 15.6249 27.6172 905.591 20.8466 187.802
lfemur -39.0435 9.85998 -12.0853
ltibia 56.3921 0 0
lfoot -14.8239 17.4802 0
ltoes -33.7756 0 0
rfemur -29.7798 -19.4495 20.2404
rtibia 56.1169 0 0
rfoot -14.4146 -20.2287 0
rtoes 9.94303 0 0
lowerback 17.7297 5.19033 -8.27402
upperback 0.424085 5.33448 -0.383438
thorax -10.2185 2.99903 2.8114
lowerneck 4.04496 -15.2329 -17.4926
upperneck -2.3721 -21.3098 24.6195
head 3.35892 -10.6873 9.25522
lclavicle 3.22031e-14 4.13472e-14 0
lhumerus -63.152 -21.8139 109.52
lradius 103.156 0 0
lwrist 42.3516 0 0
lhand -5.2628 27.9484 0
lfingers 7.12502 0 0
lthumb 20.5409 56.8817 0
rclavicle 3.22031e-14 4.13472e-14 0
rhumerus -14.0116 39.8553 -58.0098
rradius 121.431 0 0
rwrist -16.4895 0 0
rhand 14.1721 -28.57 0
rfingers 7.12502 0 0
rthumb 39.0718 -54.0695 0
1743
root -4.5566 15.6127 27.6274 905.574 24.2173 187.575
lfemur -37.7731 8.95406 -11.1439
ltibia 56.2427 0 0
lfoot -14.3019 17.4162 0
ltoes -32.876 0 0
rfemur -30.1305 -19.8162 20.5053
rtibia 55.6711 0 0
rfoot -14.6643 -20.0361 0
rtoes 9.93023 0 0
lowerback 17.6652 5.51705 -8.36405
upperback 0.207028 5.70725 -0.660192
thorax -10.4519 3.17635 2.4424
lowerneck 3.82795 -15.0232 -17.5394
upperneck -2.14066 -21.0226 24.2423
head 3.35611 -10.5328 9.16383
lclavicle 3.53837e-14 -7.95139e-15 0
lhumerus -64.6268 -20.1443 108.557
lradius 103.822 0 0
lwrist 42.3714 0 0
lhand -3.9437 27.0445 0
lfingers 7.12502 0 0
lthumb 21.808 55.8358 0
rclavicle 3.53837e-14 -7.95139e-15 0
rhumerus -18.0411 37.9059 -58.9611
rradius 117.023 0 0
rwrist -13.248 0 0
rhand 7.65356 -29.9228 0
rfingers 7.12502 0 0
rthumb 32.8976 -56.9446 0
